# xmcd CD database file
#
# Track frame offsets:
#	150
#	14771
#	35217
#	52510
#	71781
#	93544
#	110388
#	128393
#	151378
#
# Disc length: 2213 seconds
#
# Revision: 0
# Processed by: cddbd v1.5.1PL0 Copyright (c) Steve Scherf et al.
# Submitted via: CDex 1.51
#
DISCID=7108a309
DTITLE=Jones, Norah - [2003] (Marian McPartlands) Piano Jazz [bootleg]
DYEAR=2003
DGENRE=Jazz
TTITLE0=September in the Rain
TTITLE1=In the Dark
TTITLE2=Comes Love
TTITLE3=For All We Know
TTITLE4=Can't Get Started
TTITLE5=Don't Know Why
TTITLE6=Peace
TTITLE7=The Nearness of You
TTITLE8=Beautiful Friendship
EXTD=YEAR: 2003
EXTT0=
EXTT1=
EXTT2=
EXTT3=
EXTT4=
EXTT5=
EXTT6=
EXTT7=
EXTT8=
PLAYORDER=
